<svg width="1024" height="1024" viewBox="0 0 1024 1024" fill="none" xmlns="http://www.w3.org/2000/svg">
<path d="M848.759 770.178C848.53 771.06 847.873 771.848 847.042 772.22C718.277 829.911 691.599 863.812 647.283 890.746C628.21 926.075 618.365 955.748 516.875 1020.8C513.943 1022.68 510.065 1022.68 507.132 1020.8C405.554 955.75 392.954 926.111 376.716 890.746C334.993 863.774 305.74 829.911 176.965 772.22C176.133 771.847 175.477 771.06 175.248 770.178C75.3235 383.943 326.459 351.143 512.003 351.143C697.531 351.143 948.666 383.943 848.759 770.178Z" fill="url(#paint0_linear_0_1)" stroke="black" stroke-width="0.3"/>
<path d="M616.379 417.568L625.641 411.036L625.651 411.029L625.662 411.025L638.25 404.884L638.266 404.875L638.285 404.871L655.492 401.293L655.502 401.291L655.513 401.29L671.306 400.276H671.321L671.335 400.277L687.897 402.44L687.9 402.441L704.016 404.87L704.026 404.871L704.035 404.874L719.88 409.471L719.89 409.474L719.9 409.478L734.792 416.158L734.8 416.163L748.44 423.4L748.45 423.405L748.459 423.412L761.056 432.831L761.059 432.834L775.481 444.221L775.493 444.231L775.502 444.242L786.224 456.988L786.234 457.002L795.155 470.466L803.93 483.582L803.94 483.597L803.946 483.612L809.957 499.159L809.958 499.166L815.08 514.629V0.758972L616.379 417.568Z" fill="url(#paint1_linear_0_1)" stroke="black" stroke-width="0.3"/>
<path d="M407.201 417.568L397.939 411.036L397.929 411.029L397.919 411.025L385.331 404.884L385.314 404.875L385.296 404.871L368.089 401.293L368.078 401.291L368.067 401.29L352.274 400.276H352.259L352.245 400.277L335.683 402.44L335.68 402.441L319.564 404.87L319.554 404.871L319.546 404.874L303.7 409.471L303.69 409.474L303.68 409.478L288.789 416.158L288.78 416.163L275.14 423.4L275.131 423.405L275.121 423.412L262.524 432.831L262.521 432.834L248.099 444.221L248.088 444.231L248.078 444.242L237.356 456.988L237.346 457.002L228.425 470.466L219.65 483.582L219.64 483.597L219.634 483.612L213.624 499.159L213.622 499.166L208.501 514.629V0.758972L407.201 417.568Z" fill="url(#paint2_linear_0_1)" stroke="black" stroke-width="0.3"/>
<defs>
<linearGradient id="paint0_linear_0_1" x1="512" y1="278.299" x2="512" y2="1026.42" gradientUnits="userSpaceOnUse">
<stop stop-color="#71CEBB"/>
<stop offset="1" stop-color="#5A6BFF"/>
</linearGradient>
<linearGradient id="paint1_linear_0_1" x1="815.23" y1="-52.5391" x2="715.613" y2="662.325" gradientUnits="userSpaceOnUse">
<stop stop-color="#5A6BFF"/>
<stop offset="1" stop-color="#71CEBB"/>
</linearGradient>
<linearGradient id="paint2_linear_0_1" x1="208.35" y1="-52.5391" x2="307.967" y2="662.325" gradientUnits="userSpaceOnUse">
<stop stop-color="#5A6BFF"/>
<stop offset="1" stop-color="#71CEBB"/>
</linearGradient>
</defs>
</svg>
